<?xml version="1.0" encoding="UTF-8" standalone="no"?>
<!-- Created with Inkscape (http://www.inkscape.org/) -->

<svg
   width="171.99153mm"
   height="186.85403mm"
   viewBox="0 0 171.99153 186.85403"
   version="1.1"
   id="svg5"
   xmlns="http://www.w3.org/2000/svg"
   xmlns:svg="http://www.w3.org/2000/svg">
  <defs
     id="defs2" />
  <g
     id="layer1"
     transform="translate(-32.875629,-86.063906)">
    <g
       style="fill:#000000"
       id="g20"
       transform="matrix(0.23036456,0,0,0.23036456,9.8759011,-10.522116)" />
    <g
       id="g59">
      <g
         id="XMLID_120_"
         transform="matrix(0.16289234,-0.16289234,0.16289234,0.16289234,71.180656,142.25313)"
         style="fill:#000000">
	<path
   id="XMLID_122_"
   d="M 479.751,134.804 346.7,1.763 c -1.711,-1.719 -4.291,-2.235 -6.553,-1.308 -2.242,0.937 -3.711,3.132 -3.711,5.561 V 70.344 H 206.921 c -8.215,0 -14.863,6.659 -14.863,14.866 v 107.702 c 0,8.207 6.648,14.865 14.863,14.865 h 129.516 v 64.329 c 0,2.429 1.469,4.624 3.711,5.561 2.262,0.926 4.842,0.411 6.553,-1.308 l 133.051,-133.05 c 1.131,-1.13 1.774,-2.656 1.774,-4.252 -0.001,-1.597 -0.644,-3.122 -1.775,-4.253 z" />

	<path
   id="XMLID_121_"
   d="M 288.858,288.019 H 159.36 v -64.33 c 0,-2.428 -1.469,-4.622 -3.711,-5.559 -2.261,-0.927 -4.844,-0.412 -6.553,1.307 L 16.047,352.478 c -1.13,1.13 -1.776,2.656 -1.776,4.252 0,1.598 0.646,3.124 1.776,4.254 l 133.05,133.048 c 1.709,1.719 4.292,2.236 6.553,1.308 2.242,-0.936 3.711,-3.13 3.711,-5.56 v -64.33 h 129.498 c 8.216,0 14.863,-6.657 14.863,-14.864 V 302.883 c -10e-4,-8.205 -6.648,-14.864 -14.864,-14.864 z" />

</g>
      <g
         style="fill:#000000"
         id="g31"
         transform="matrix(8.8194444,0,0,8.8194444,4.2128648,98.735268)">
        <path
           d="m 16.1007,13.359 -0.5288,-0.5318 v 0 z m 0.4555,-0.4528 0.5288,0.5318 v 0 z m 2.4166,-0.3168 -0.3582,0.6589 z m 1.9105,1.0386 -0.3582,0.6589 z m 0.5384,3.255 0.5288,0.5318 z m -1.4206,1.4124 -0.5288,-0.5318 z m -1.3248,0.6697 0.0696,0.7468 v 0 z M 8.81536,14.7266 9.34418,14.1947 Z M 4.00289,5.74561 3.2541,5.78816 v 0 z m 6.47461,1.45177 0.5288,0.53184 v 0 z m 0.1567,-2.6539 0.6004,-0.44947 z M 9.37326,2.85908 8.77286,3.30855 v 0 z M 6.26145,2.57483 6.79027,3.10667 v 0 z M 4.69185,4.13552 4.16303,3.60368 v 0 z m 7.37125,7.36168 0.5288,-0.5318 z m 4.5664,2.3937 0.4555,-0.4529 -1.0577,-1.0637 -0.4554,0.4529 z m 1.9851,-0.6426 1.9105,1.0386 0.7164,-1.3178 -1.9105,-1.0386 z m 2.2783,3.1028 -1.4206,1.4125 1.0576,1.0637 1.4206,-1.4125 z m -2.2862,1.8673 c -1.4499,0.1351 -5.2011,0.0147 -9.26252,-4.0237 l -1.05764,1.0637 c 4.43206,4.4069 8.65036,4.6221 10.45936,4.4535 z M 9.34418,14.1947 C 5.4728,10.3453 4.83151,7.10765 4.75168,5.70305 L 3.2541,5.78816 C 3.35456,7.55599 4.14863,11.144 8.28654,15.2584 Z M 10.7195,8.01441 11.0063,7.72922 9.9487,6.66555 9.66189,6.95073 Z M 11.2346,4.09401 9.97365,2.40961 8.77286,3.30855 10.0338,4.99296 Z M 5.73263,2.04299 4.16303,3.60368 5.22067,4.66736 6.79027,3.10667 Z M 10.1907,7.48257 C 9.66189,6.95073 9.66117,6.95144 9.66045,6.95216 9.66021,6.9524 9.65949,6.95313 9.659,6.95362 9.65802,6.95461 9.65702,6.95561 9.65601,6.95664 9.65398,6.95871 9.65188,6.96086 9.64972,6.9631 9.64539,6.96759 9.64081,6.97245 9.63599,6.97769 9.62634,6.98816 9.61575,7.00014 9.60441,7.01367 9.58174,7.04072 9.55605,7.07403 9.52905,7.11388 9.47492,7.19377 9.41594,7.2994 9.36589,7.43224 9.26376,7.70329 9.20901,8.0606 9.27765,8.50305 9.41189,9.36833 10.0078,10.5113 11.5343,12.0291 l 1.0576,-1.0637 C 11.1634,9.54499 10.8231,8.68059 10.7599,8.27309 10.7298,8.07916 10.761,7.98371 10.7696,7.96111 10.7748,7.94713 10.7773,7.9457 10.7709,7.95525 10.7677,7.95992 10.7624,7.96723 10.7541,7.97708 10.75,7.98201 10.7451,7.98759 10.7394,7.99381 10.7365,7.99692 10.7335,8.00019 10.7301,8.00362 10.7285,8.00534 10.7268,8.00709 10.725,8.00889 c -9e-4,9e-4 -0.0018,0.00181 -0.0027,0.00273 -4e-4,4.6e-4 -0.0011,0.00116 -0.0014,0.00139 -7e-4,7e-4 -0.0014,0.0014 -0.5302,-0.53044 z m 1.3436,4.54653 c 1.527,1.5183 2.6753,2.1092 3.542,2.2422 0.4429,0.0679 0.8,0.0137 1.0709,-0.0872 0.1328,-0.0495 0.2386,-0.1078 0.3186,-0.1614 0.04,-0.0268 0.0734,-0.0523 0.1005,-0.0748 0.0136,-0.0112 0.0256,-0.0217 0.0361,-0.0313 0.0053,-0.0048 0.0102,-0.0093 0.0147,-0.0136 0.0023,-0.0022 0.0044,-0.0043 0.0065,-0.0063 0.001,-10e-4 0.002,-0.002 0.003,-0.003 5e-4,-5e-4 0.0013,-0.0012 0.0015,-0.0014 7e-4,-7e-4 0.0014,-0.0014 -0.5274,-0.5333 -0.5288,-0.5318 -0.5281,-0.5325 -0.5274,-0.5332 2e-4,-2e-4 9e-4,-9e-4 0.0014,-0.0014 9e-4,-9e-4 0.0018,-0.0018 0.0027,-0.0027 0.0019,-0.0017 0.0036,-0.0034 0.0053,-0.0051 0.0035,-0.0033 0.0068,-0.0063 0.0099,-0.0092 0.0062,-0.0056 0.0118,-0.0105 0.0168,-0.0145 0.0098,-0.0082 0.0171,-0.0134 0.0216,-0.0165 0.0093,-0.0062 0.0074,-0.0034 -0.0074,0.0021 -0.0245,0.0091 -0.1226,0.0404 -0.3198,0.0101 C 14.8905,12.7253 14.02,12.3853 12.5919,10.9654 Z M 9.97365,2.40961 C 8.95434,1.04802 6.94996,0.83257 5.73263,2.04299 L 6.79027,3.10667 C 7.32195,2.578 8.26623,2.63181 8.77286,3.30855 Z M 4.75168,5.70305 C 4.73201,5.35694 4.89075,4.9954 5.22067,4.66736 L 4.16303,3.60368 C 3.62571,4.13795 3.20329,4.89425 3.2541,5.78816 Z M 19.4723,17.7636 c -0.2748,0.2733 -0.5694,0.4272 -0.8656,0.4548 l 0.1392,1.4935 c 0.7346,-0.0685 1.3365,-0.4396 1.784,-0.8846 z M 11.0063,7.72922 C 11.9908,6.7503 12.064,5.2019 11.2346,4.09401 l -1.2008,0.89894 c 0.4035,0.53898 0.3435,1.24643 -0.0851,1.6726 z m 9.5188,6.55768 c 0.8178,0.4446 0.9452,1.49 0.3678,2.0642 l 1.0576,1.0637 c 1.3403,-1.3327 0.927,-3.5564 -0.709,-4.4457 z M 17.085,13.438 c 0.384,-0.3818 1.0021,-0.4764 1.5296,-0.1897 l 0.7164,-1.3178 c -1.0836,-0.5891 -2.4284,-0.4264 -3.3037,0.4438 z"
           fill="#1c274c"
           id="path22"
           style="fill:#000000" />
      </g>
    </g>
  </g>
</svg>
